<svg width="20" height="20" viewBox="0 0 20 20" fill="none" xmlns="http://www.w3.org/2000/svg">
<path fill-rule="evenodd" clip-rule="evenodd" d="M0 10C0 4.47715 4.47715 0 10 0C15.5228 0 20 4.47715 20 10C20 15.5228 15.5228 20 10 20C4.47715 20 0 15.5228 0 10Z" fill="#EC6E4D"/>
<path d="M13.6067 5.12132C12.8345 4.34916 11.8969 3.8358 10.9126 3.57276C11.4472 5.57528 10.9338 7.79418 9.36403 9.36396C7.79425 10.9337 5.57535 11.4471 3.57283 10.9125C3.83587 11.8968 4.34923 12.8344 5.12139 13.6066C7.46333 15.9485 11.2647 15.9485 13.6067 13.6066C15.9486 11.2647 15.9486 7.46326 13.6067 5.12132Z" fill="#212331"/>
</svg>
